<?xml version="1.0" encoding="UTF-8" standalone="no"?>
<!DOCTYPE svg PUBLIC "-//W3C//DTD SVG 1.1//EN"
 "http://www.w3.org/Graphics/SVG/1.1/DTD/svg11.dtd">
<!-- Generated by graphviz version 2.43.0 (0)
 -->
<!-- Title: G Pages: 1 -->
<svg width="1750pt" height="404pt"
 viewBox="0.00 0.00 1750.00 404.00" xmlns="http://www.w3.org/2000/svg" xmlns:xlink="http://www.w3.org/1999/xlink">
<g id="graph0" class="graph" transform="scale(1 1) rotate(0) translate(4 400)">
<title>G</title>
<polygon fill="white" stroke="transparent" points="-4,4 -4,-400 1746,-400 1746,4 -4,4"/>
<!-- G -->
<g id="node1" class="node">
<title>G</title>
<ellipse fill="none" stroke="black" cx="82" cy="-234" rx="27" ry="18"/>
<text text-anchor="middle" x="82" y="-229.8" font-family="Times,serif" font-size="14.00">G</text>
</g>
<!-- c -->
<g id="node2" class="node">
<title>c</title>
<ellipse fill="none" stroke="black" cx="27" cy="-162" rx="27" ry="18"/>
<text text-anchor="middle" x="27" y="-157.8" font-family="Times,serif" font-size="14.00">c</text>
</g>
<!-- G&#45;&#45;c -->
<g id="edge1" class="edge">
<title>G&#45;&#45;c</title>
<path fill="none" stroke="black" d="M70.07,-217.81C60.84,-206.07 48.13,-189.89 38.91,-178.16"/>
</g>
<!-- E -->
<g id="node43" class="node">
<title>E</title>
<ellipse fill="none" stroke="black" cx="137" cy="-90" rx="27" ry="18"/>
<text text-anchor="middle" x="137" y="-85.8" font-family="Times,serif" font-size="14.00">E</text>
</g>
<!-- G&#45;&#45;E -->
<g id="edge37" class="edge">
<title>G&#45;&#45;E</title>
<path fill="none" stroke="black" d="M83.66,-216.01C85.89,-197.65 90.83,-167.83 101,-144 106.85,-130.29 116.44,-116.41 124.25,-106.3"/>
</g>
<!-- R -->
<g id="node44" class="node">
<title>R</title>
<ellipse fill="none" stroke="black" cx="137" cy="-162" rx="27" ry="18"/>
<text text-anchor="middle" x="137" y="-157.8" font-family="Times,serif" font-size="14.00">R</text>
</g>
<!-- G&#45;&#45;R -->
<g id="edge40" class="edge">
<title>G&#45;&#45;R</title>
<path fill="none" stroke="black" d="M93.93,-217.81C103.16,-206.07 115.87,-189.89 125.09,-178.16"/>
</g>
<!-- V -->
<g id="node3" class="node">
<title>V</title>
<ellipse fill="none" stroke="black" cx="209" cy="-162" rx="27" ry="18"/>
<text text-anchor="middle" x="209" y="-157.8" font-family="Times,serif" font-size="14.00">V</text>
</g>
<!-- t -->
<g id="node4" class="node">
<title>t</title>
<ellipse fill="none" stroke="black" cx="264" cy="-90" rx="27" ry="18"/>
<text text-anchor="middle" x="264" y="-85.8" font-family="Times,serif" font-size="14.00">t</text>
</g>
<!-- V&#45;&#45;t -->
<g id="edge2" class="edge">
<title>V&#45;&#45;t</title>
<path fill="none" stroke="black" d="M220.93,-145.81C230.16,-134.07 242.87,-117.89 252.09,-106.16"/>
</g>
<!-- V&#45;&#45;E -->
<g id="edge36" class="edge">
<title>V&#45;&#45;E</title>
<path fill="none" stroke="black" d="M194.43,-146.83C182.02,-134.77 164.27,-117.51 151.8,-105.38"/>
</g>
<!-- H -->
<g id="node5" class="node">
<title>H</title>
<ellipse fill="none" stroke="black" cx="247" cy="-234" rx="27" ry="18"/>
<text text-anchor="middle" x="247" y="-229.8" font-family="Times,serif" font-size="14.00">H</text>
</g>
<!-- H&#45;&#45;V -->
<g id="edge41" class="edge">
<title>H&#45;&#45;V</title>
<path fill="none" stroke="black" d="M238.19,-216.76C232.05,-205.46 223.89,-190.44 217.77,-179.15"/>
</g>
<!-- H&#45;&#45;t -->
<g id="edge3" class="edge">
<title>H&#45;&#45;t</title>
<path fill="none" stroke="black" d="M249.05,-215.87C252.32,-188.58 258.67,-135.52 261.94,-108.19"/>
</g>
<!-- z -->
<g id="node21" class="node">
<title>z</title>
<ellipse fill="none" stroke="black" cx="357" cy="-162" rx="27" ry="18"/>
<text text-anchor="middle" x="357" y="-157.8" font-family="Times,serif" font-size="14.00">z</text>
</g>
<!-- H&#45;&#45;z -->
<g id="edge18" class="edge">
<title>H&#45;&#45;z</title>
<path fill="none" stroke="black" d="M266.16,-220.81C286.35,-207.96 317.95,-187.85 338.06,-175.05"/>
</g>
<!-- x -->
<g id="node6" class="node">
<title>x</title>
<ellipse fill="none" stroke="black" cx="667" cy="-234" rx="27" ry="18"/>
<text text-anchor="middle" x="667" y="-229.8" font-family="Times,serif" font-size="14.00">x</text>
</g>
<!-- p -->
<g id="node7" class="node">
<title>p</title>
<ellipse fill="none" stroke="black" cx="659" cy="-162" rx="27" ry="18"/>
<text text-anchor="middle" x="659" y="-157.8" font-family="Times,serif" font-size="14.00">p</text>
</g>
<!-- x&#45;&#45;p -->
<g id="edge4" class="edge">
<title>x&#45;&#45;p</title>
<path fill="none" stroke="black" d="M665.02,-215.7C663.78,-204.85 662.19,-190.92 660.95,-180.1"/>
</g>
<!-- j -->
<g id="node12" class="node">
<title>j</title>
<ellipse fill="none" stroke="black" cx="731" cy="-162" rx="27" ry="18"/>
<text text-anchor="middle" x="731" y="-157.8" font-family="Times,serif" font-size="14.00">j</text>
</g>
<!-- x&#45;&#45;j -->
<g id="edge8" class="edge">
<title>x&#45;&#45;j</title>
<path fill="none" stroke="black" d="M680.57,-218.15C691.43,-206.28 706.59,-189.7 717.45,-177.82"/>
</g>
<!-- o -->
<g id="node8" class="node">
<title>o</title>
<ellipse fill="none" stroke="black" cx="523" cy="-234" rx="27" ry="18"/>
<text text-anchor="middle" x="523" y="-229.8" font-family="Times,serif" font-size="14.00">o</text>
</g>
<!-- d -->
<g id="node9" class="node">
<title>d</title>
<ellipse fill="none" stroke="black" cx="559" cy="-162" rx="27" ry="18"/>
<text text-anchor="middle" x="559" y="-157.8" font-family="Times,serif" font-size="14.00">d</text>
</g>
<!-- o&#45;&#45;d -->
<g id="edge5" class="edge">
<title>o&#45;&#45;d</title>
<path fill="none" stroke="black" d="M531.35,-216.76C537.17,-205.46 544.89,-190.44 550.7,-179.15"/>
</g>
<!-- s -->
<g id="node10" class="node">
<title>s</title>
<ellipse fill="none" stroke="black" cx="595" cy="-234" rx="27" ry="18"/>
<text text-anchor="middle" x="595" y="-229.8" font-family="Times,serif" font-size="14.00">s</text>
</g>
<!-- s&#45;&#45;d -->
<g id="edge6" class="edge">
<title>s&#45;&#45;d</title>
<path fill="none" stroke="black" d="M586.65,-216.76C580.83,-205.46 573.11,-190.44 567.3,-179.15"/>
</g>
<!-- Q -->
<g id="node11" class="node">
<title>Q</title>
<ellipse fill="none" stroke="black" cx="523" cy="-306" rx="27" ry="18"/>
<text text-anchor="middle" x="523" y="-301.8" font-family="Times,serif" font-size="14.00">Q</text>
</g>
<!-- Q&#45;&#45;o -->
<g id="edge7" class="edge">
<title>Q&#45;&#45;o</title>
<path fill="none" stroke="black" d="M523,-287.7C523,-276.85 523,-262.92 523,-252.1"/>
</g>
<!-- w -->
<g id="node13" class="node">
<title>w</title>
<ellipse fill="none" stroke="black" cx="781" cy="-234" rx="27" ry="18"/>
<text text-anchor="middle" x="781" y="-229.8" font-family="Times,serif" font-size="14.00">w</text>
</g>
<!-- w&#45;&#45;j -->
<g id="edge9" class="edge">
<title>w&#45;&#45;j</title>
<path fill="none" stroke="black" d="M769.9,-217.46C761.62,-205.86 750.34,-190.08 742.07,-178.49"/>
</g>
<!-- h -->
<g id="node14" class="node">
<title>h</title>
<ellipse fill="none" stroke="black" cx="726" cy="-306" rx="27" ry="18"/>
<text text-anchor="middle" x="726" y="-301.8" font-family="Times,serif" font-size="14.00">h</text>
</g>
<!-- h&#45;&#45;j -->
<g id="edge10" class="edge">
<title>h&#45;&#45;j</title>
<path fill="none" stroke="black" d="M726.6,-287.87C727.56,-260.58 729.43,-207.52 730.39,-180.19"/>
</g>
<!-- h&#45;&#45;w -->
<g id="edge12" class="edge">
<title>h&#45;&#45;w</title>
<path fill="none" stroke="black" d="M737.93,-289.81C747.16,-278.07 759.87,-261.89 769.09,-250.16"/>
</g>
<!-- a -->
<g id="node15" class="node">
<title>a</title>
<ellipse fill="none" stroke="black" cx="798" cy="-306" rx="27" ry="18"/>
<text text-anchor="middle" x="798" y="-301.8" font-family="Times,serif" font-size="14.00">a</text>
</g>
<!-- a&#45;&#45;w -->
<g id="edge11" class="edge">
<title>a&#45;&#45;w</title>
<path fill="none" stroke="black" d="M793.88,-288.05C791.25,-277.21 787.84,-263.18 785.2,-252.28"/>
</g>
<!-- K -->
<g id="node16" class="node">
<title>K</title>
<ellipse fill="none" stroke="black" cx="595" cy="-306" rx="27" ry="18"/>
<text text-anchor="middle" x="595" y="-301.8" font-family="Times,serif" font-size="14.00">K</text>
</g>
<!-- K&#45;&#45;s -->
<g id="edge13" class="edge">
<title>K&#45;&#45;s</title>
<path fill="none" stroke="black" d="M595,-287.7C595,-276.85 595,-262.92 595,-252.1"/>
</g>
<!-- A -->
<g id="node17" class="node">
<title>A</title>
<ellipse fill="none" stroke="black" cx="413" cy="-306" rx="27" ry="18"/>
<text text-anchor="middle" x="413" y="-301.8" font-family="Times,serif" font-size="14.00">A</text>
</g>
<!-- n -->
<g id="node18" class="node">
<title>n</title>
<ellipse fill="none" stroke="black" cx="429" cy="-162" rx="27" ry="18"/>
<text text-anchor="middle" x="429" y="-157.8" font-family="Times,serif" font-size="14.00">n</text>
</g>
<!-- A&#45;&#45;n -->
<g id="edge14" class="edge">
<title>A&#45;&#45;n</title>
<path fill="none" stroke="black" d="M414.93,-287.87C418.01,-260.58 423.98,-207.52 427.06,-180.19"/>
</g>
<!-- W -->
<g id="node19" class="node">
<title>W</title>
<ellipse fill="none" stroke="black" cx="365" cy="-234" rx="27" ry="18"/>
<text text-anchor="middle" x="365" y="-229.8" font-family="Times,serif" font-size="14.00">W</text>
</g>
<!-- A&#45;&#45;W -->
<g id="edge42" class="edge">
<title>A&#45;&#45;W</title>
<path fill="none" stroke="black" d="M402.11,-289.12C394.25,-277.66 383.69,-262.26 375.85,-250.82"/>
</g>
<!-- W&#45;&#45;n -->
<g id="edge15" class="edge">
<title>W&#45;&#45;n</title>
<path fill="none" stroke="black" d="M378.57,-218.15C389.43,-206.28 404.59,-189.7 415.45,-177.82"/>
</g>
<!-- W&#45;&#45;R -->
<g id="edge39" class="edge">
<title>W&#45;&#45;R</title>
<path fill="none" stroke="black" d="M339.71,-227.48C302.57,-219.06 231.36,-201.65 173,-180 168.08,-178.17 162.9,-175.93 158.06,-173.68"/>
</g>
<!-- B -->
<g id="node20" class="node">
<title>B</title>
<ellipse fill="none" stroke="black" cx="440" cy="-378" rx="27" ry="18"/>
<text text-anchor="middle" x="440" y="-373.8" font-family="Times,serif" font-size="14.00">B</text>
</g>
<!-- B&#45;&#45;Q -->
<g id="edge45" class="edge">
<title>B&#45;&#45;Q</title>
<path fill="none" stroke="black" d="M456.4,-363.17C471.04,-350.82 492.37,-332.83 506.92,-320.56"/>
</g>
<!-- B&#45;&#45;A -->
<g id="edge44" class="edge">
<title>B&#45;&#45;A</title>
<path fill="none" stroke="black" d="M433.6,-360.41C429.36,-349.41 423.81,-335.03 419.54,-323.96"/>
</g>
<!-- B&#45;&#45;n -->
<g id="edge16" class="edge">
<title>B&#45;&#45;n</title>
<path fill="none" stroke="black" d="M443.65,-359.91C445.68,-349.57 447.98,-336.09 449,-324 453.45,-271.23 440.58,-209.14 433.43,-179.88"/>
</g>
<!-- B&#45;&#45;W -->
<g id="edge43" class="edge">
<title>B&#45;&#45;W</title>
<path fill="none" stroke="black" d="M420.07,-365.8C405.61,-356.55 386.92,-342.04 377,-324 364.61,-301.46 363.2,-271 363.77,-252.2"/>
</g>
<!-- i -->
<g id="node22" class="node">
<title>i</title>
<ellipse fill="none" stroke="black" cx="357" cy="-90" rx="27" ry="18"/>
<text text-anchor="middle" x="357" y="-85.8" font-family="Times,serif" font-size="14.00">i</text>
</g>
<!-- z&#45;&#45;i -->
<g id="edge17" class="edge">
<title>z&#45;&#45;i</title>
<path fill="none" stroke="black" d="M357,-143.7C357,-132.85 357,-118.92 357,-108.1"/>
</g>
<!-- u -->
<g id="node23" class="node">
<title>u</title>
<ellipse fill="none" stroke="black" cx="1069" cy="-162" rx="27" ry="18"/>
<text text-anchor="middle" x="1069" y="-157.8" font-family="Times,serif" font-size="14.00">u</text>
</g>
<!-- m -->
<g id="node24" class="node">
<title>m</title>
<ellipse fill="none" stroke="black" cx="997" cy="-90" rx="27" ry="18"/>
<text text-anchor="middle" x="997" y="-85.8" font-family="Times,serif" font-size="14.00">m</text>
</g>
<!-- u&#45;&#45;m -->
<g id="edge19" class="edge">
<title>u&#45;&#45;m</title>
<path fill="none" stroke="black" d="M1054.43,-146.83C1042.02,-134.77 1024.27,-117.51 1011.8,-105.38"/>
</g>
<!-- y -->
<g id="node25" class="node">
<title>y</title>
<ellipse fill="none" stroke="black" cx="925" cy="-162" rx="27" ry="18"/>
<text text-anchor="middle" x="925" y="-157.8" font-family="Times,serif" font-size="14.00">y</text>
</g>
<!-- y&#45;&#45;m -->
<g id="edge20" class="edge">
<title>y&#45;&#45;m</title>
<path fill="none" stroke="black" d="M939.57,-146.83C951.98,-134.77 969.73,-117.51 982.2,-105.38"/>
</g>
<!-- U -->
<g id="node26" class="node">
<title>U</title>
<ellipse fill="none" stroke="black" cx="1386" cy="-90" rx="27" ry="18"/>
<text text-anchor="middle" x="1386" y="-85.8" font-family="Times,serif" font-size="14.00">U</text>
</g>
<!-- b -->
<g id="node27" class="node">
<title>b</title>
<ellipse fill="none" stroke="black" cx="1327" cy="-18" rx="27" ry="18"/>
<text text-anchor="middle" x="1327" y="-13.8" font-family="Times,serif" font-size="14.00">b</text>
</g>
<!-- U&#45;&#45;b -->
<g id="edge21" class="edge">
<title>U&#45;&#45;b</title>
<path fill="none" stroke="black" d="M1373.2,-73.81C1363.3,-62.07 1349.67,-45.89 1339.78,-34.16"/>
</g>
<!-- q -->
<g id="node28" class="node">
<title>q</title>
<ellipse fill="none" stroke="black" cx="1268" cy="-90" rx="27" ry="18"/>
<text text-anchor="middle" x="1268" y="-85.8" font-family="Times,serif" font-size="14.00">q</text>
</g>
<!-- q&#45;&#45;b -->
<g id="edge22" class="edge">
<title>q&#45;&#45;b</title>
<path fill="none" stroke="black" d="M1280.8,-73.81C1290.7,-62.07 1304.33,-45.89 1314.22,-34.16"/>
</g>
<!-- O -->
<g id="node29" class="node">
<title>O</title>
<ellipse fill="none" stroke="black" cx="1268" cy="-162" rx="27" ry="18"/>
<text text-anchor="middle" x="1268" y="-157.8" font-family="Times,serif" font-size="14.00">O</text>
</g>
<!-- O&#45;&#45;q -->
<g id="edge23" class="edge">
<title>O&#45;&#45;q</title>
<path fill="none" stroke="black" d="M1268,-143.7C1268,-132.85 1268,-118.92 1268,-108.1"/>
</g>
<!-- D -->
<g id="node30" class="node">
<title>D</title>
<ellipse fill="none" stroke="black" cx="1213" cy="-234" rx="27" ry="18"/>
<text text-anchor="middle" x="1213" y="-229.8" font-family="Times,serif" font-size="14.00">D</text>
</g>
<!-- D&#45;&#45;q -->
<g id="edge24" class="edge">
<title>D&#45;&#45;q</title>
<path fill="none" stroke="black" d="M1214.66,-216.01C1216.89,-197.65 1221.83,-167.83 1232,-144 1237.85,-130.29 1247.44,-116.41 1255.25,-106.3"/>
</g>
<!-- D&#45;&#45;O -->
<g id="edge56" class="edge">
<title>D&#45;&#45;O</title>
<path fill="none" stroke="black" d="M1224.93,-217.81C1234.16,-206.07 1246.87,-189.89 1256.09,-178.16"/>
</g>
<!-- L -->
<g id="node31" class="node">
<title>L</title>
<ellipse fill="none" stroke="black" cx="925" cy="-234" rx="27" ry="18"/>
<text text-anchor="middle" x="925" y="-229.8" font-family="Times,serif" font-size="14.00">L</text>
</g>
<!-- L&#45;&#45;y -->
<g id="edge25" class="edge">
<title>L&#45;&#45;y</title>
<path fill="none" stroke="black" d="M925,-215.7C925,-204.85 925,-190.92 925,-180.1"/>
</g>
<!-- r -->
<g id="node34" class="node">
<title>r</title>
<ellipse fill="none" stroke="black" cx="997" cy="-162" rx="27" ry="18"/>
<text text-anchor="middle" x="997" y="-157.8" font-family="Times,serif" font-size="14.00">r</text>
</g>
<!-- L&#45;&#45;r -->
<g id="edge29" class="edge">
<title>L&#45;&#45;r</title>
<path fill="none" stroke="black" d="M939.57,-218.83C951.98,-206.77 969.73,-189.51 982.2,-177.38"/>
</g>
<!-- f -->
<g id="node32" class="node">
<title>f</title>
<ellipse fill="none" stroke="black" cx="853" cy="-234" rx="27" ry="18"/>
<text text-anchor="middle" x="853" y="-229.8" font-family="Times,serif" font-size="14.00">f</text>
</g>
<!-- f&#45;&#45;y -->
<g id="edge26" class="edge">
<title>f&#45;&#45;y</title>
<path fill="none" stroke="black" d="M867.57,-218.83C879.98,-206.77 897.73,-189.51 910.2,-177.38"/>
</g>
<!-- g -->
<g id="node33" class="node">
<title>g</title>
<ellipse fill="none" stroke="black" cx="997" cy="-234" rx="27" ry="18"/>
<text text-anchor="middle" x="997" y="-229.8" font-family="Times,serif" font-size="14.00">g</text>
</g>
<!-- g&#45;&#45;r -->
<g id="edge27" class="edge">
<title>g&#45;&#45;r</title>
<path fill="none" stroke="black" d="M997,-215.7C997,-204.85 997,-190.92 997,-180.1"/>
</g>
<!-- T -->
<g id="node35" class="node">
<title>T</title>
<ellipse fill="none" stroke="black" cx="1044" cy="-306" rx="27" ry="18"/>
<text text-anchor="middle" x="1044" y="-301.8" font-family="Times,serif" font-size="14.00">T</text>
</g>
<!-- T&#45;&#45;g -->
<g id="edge35" class="edge">
<title>T&#45;&#45;g</title>
<path fill="none" stroke="black" d="M1033.33,-289.12C1025.64,-277.66 1015.3,-262.26 1007.62,-250.82"/>
</g>
<!-- T&#45;&#45;r -->
<g id="edge28" class="edge">
<title>T&#45;&#45;r</title>
<path fill="none" stroke="black" d="M1044.24,-287.7C1043.95,-269.34 1041.94,-239.75 1033,-216 1027.75,-202.05 1018.13,-188.18 1010.16,-178.13"/>
</g>
<!-- v -->
<g id="node39" class="node">
<title>v</title>
<ellipse fill="none" stroke="black" cx="1116" cy="-234" rx="27" ry="18"/>
<text text-anchor="middle" x="1116" y="-229.8" font-family="Times,serif" font-size="14.00">v</text>
</g>
<!-- T&#45;&#45;v -->
<g id="edge32" class="edge">
<title>T&#45;&#45;v</title>
<path fill="none" stroke="black" d="M1058.57,-290.83C1070.98,-278.77 1088.73,-261.51 1101.2,-249.38"/>
</g>
<!-- S -->
<g id="node36" class="node">
<title>S</title>
<ellipse fill="none" stroke="black" cx="1239" cy="-306" rx="27" ry="18"/>
<text text-anchor="middle" x="1239" y="-301.8" font-family="Times,serif" font-size="14.00">S</text>
</g>
<!-- S&#45;&#45;D -->
<g id="edge57" class="edge">
<title>S&#45;&#45;D</title>
<path fill="none" stroke="black" d="M1232.84,-288.41C1228.75,-277.41 1223.41,-263.03 1219.3,-251.96"/>
</g>
<!-- k -->
<g id="node37" class="node">
<title>k</title>
<ellipse fill="none" stroke="black" cx="1285" cy="-234" rx="27" ry="18"/>
<text text-anchor="middle" x="1285" y="-229.8" font-family="Times,serif" font-size="14.00">k</text>
</g>
<!-- S&#45;&#45;k -->
<g id="edge30" class="edge">
<title>S&#45;&#45;k</title>
<path fill="none" stroke="black" d="M1249.44,-289.12C1256.97,-277.66 1267.08,-262.26 1274.6,-250.82"/>
</g>
<!-- e -->
<g id="node38" class="node">
<title>e</title>
<ellipse fill="none" stroke="black" cx="1116" cy="-306" rx="27" ry="18"/>
<text text-anchor="middle" x="1116" y="-301.8" font-family="Times,serif" font-size="14.00">e</text>
</g>
<!-- e&#45;&#45;v -->
<g id="edge31" class="edge">
<title>e&#45;&#45;v</title>
<path fill="none" stroke="black" d="M1116,-287.7C1116,-276.85 1116,-262.92 1116,-252.1"/>
</g>
<!-- P -->
<g id="node40" class="node">
<title>P</title>
<ellipse fill="none" stroke="black" cx="1687" cy="-306" rx="27" ry="18"/>
<text text-anchor="middle" x="1687" y="-301.8" font-family="Times,serif" font-size="14.00">P</text>
</g>
<!-- l -->
<g id="node41" class="node">
<title>l</title>
<ellipse fill="none" stroke="black" cx="1715" cy="-234" rx="27" ry="18"/>
<text text-anchor="middle" x="1715" y="-229.8" font-family="Times,serif" font-size="14.00">l</text>
</g>
<!-- P&#45;&#45;l -->
<g id="edge33" class="edge">
<title>P&#45;&#45;l</title>
<path fill="none" stroke="black" d="M1693.64,-288.41C1698.1,-277.25 1703.96,-262.6 1708.41,-251.47"/>
</g>
<!-- X -->
<g id="node42" class="node">
<title>X</title>
<ellipse fill="none" stroke="black" cx="1687" cy="-378" rx="27" ry="18"/>
<text text-anchor="middle" x="1687" y="-373.8" font-family="Times,serif" font-size="14.00">X</text>
</g>
<!-- X&#45;&#45;P -->
<g id="edge59" class="edge">
<title>X&#45;&#45;P</title>
<path fill="none" stroke="black" d="M1687,-359.7C1687,-348.85 1687,-334.92 1687,-324.1"/>
</g>
<!-- X&#45;&#45;l -->
<g id="edge34" class="edge">
<title>X&#45;&#45;l</title>
<path fill="none" stroke="black" d="M1700.75,-362.07C1708.96,-352.1 1718.62,-338.25 1723,-324 1730.48,-299.68 1725.09,-270 1720.25,-251.8"/>
</g>
<!-- J -->
<g id="node52" class="node">
<title>J</title>
<ellipse fill="none" stroke="black" cx="1615" cy="-306" rx="27" ry="18"/>
<text text-anchor="middle" x="1615" y="-301.8" font-family="Times,serif" font-size="14.00">J</text>
</g>
<!-- X&#45;&#45;J -->
<g id="edge61" class="edge">
<title>X&#45;&#45;J</title>
<path fill="none" stroke="black" d="M1672.43,-362.83C1660.02,-350.77 1642.27,-333.51 1629.8,-321.38"/>
</g>
<!-- R&#45;&#45;E -->
<g id="edge38" class="edge">
<title>R&#45;&#45;E</title>
<path fill="none" stroke="black" d="M137,-143.7C137,-132.85 137,-118.92 137,-108.1"/>
</g>
<!-- Z -->
<g id="node45" class="node">
<title>Z</title>
<ellipse fill="none" stroke="black" cx="1357" cy="-234" rx="27" ry="18"/>
<text text-anchor="middle" x="1357" y="-229.8" font-family="Times,serif" font-size="14.00">Z</text>
</g>
<!-- I -->
<g id="node46" class="node">
<title>I</title>
<ellipse fill="none" stroke="black" cx="1433" cy="-162" rx="27" ry="18"/>
<text text-anchor="middle" x="1433" y="-157.8" font-family="Times,serif" font-size="14.00">I</text>
</g>
<!-- Z&#45;&#45;I -->
<g id="edge46" class="edge">
<title>Z&#45;&#45;I</title>
<path fill="none" stroke="black" d="M1372.38,-218.83C1385.57,-206.69 1404.46,-189.28 1417.64,-177.14"/>
</g>
<!-- C -->
<g id="node47" class="node">
<title>C</title>
<ellipse fill="none" stroke="black" cx="1505" cy="-306" rx="27" ry="18"/>
<text text-anchor="middle" x="1505" y="-301.8" font-family="Times,serif" font-size="14.00">C</text>
</g>
<!-- C&#45;&#45;I -->
<g id="edge47" class="edge">
<title>C&#45;&#45;I</title>
<path fill="none" stroke="black" d="M1497.92,-288.36C1490.09,-270.31 1476.9,-240.74 1464,-216 1457.4,-203.33 1449.21,-189.41 1442.91,-179.01"/>
</g>
<!-- Y -->
<g id="node49" class="node">
<title>Y</title>
<ellipse fill="none" stroke="black" cx="1543" cy="-234" rx="27" ry="18"/>
<text text-anchor="middle" x="1543" y="-229.8" font-family="Times,serif" font-size="14.00">Y</text>
</g>
<!-- C&#45;&#45;Y -->
<g id="edge55" class="edge">
<title>C&#45;&#45;Y</title>
<path fill="none" stroke="black" d="M1513.81,-288.76C1519.95,-277.46 1528.11,-262.44 1534.23,-251.15"/>
</g>
<!-- N -->
<g id="node48" class="node">
<title>N</title>
<ellipse fill="none" stroke="black" cx="1533" cy="-378" rx="27" ry="18"/>
<text text-anchor="middle" x="1533" y="-373.8" font-family="Times,serif" font-size="14.00">N</text>
</g>
<!-- N&#45;&#45;I -->
<g id="edge48" class="edge">
<title>N&#45;&#45;I</title>
<path fill="none" stroke="black" d="M1513.2,-365.62C1498.74,-356.27 1479.85,-341.72 1469,-324 1440.58,-277.59 1434.51,-211.39 1433.28,-180.33"/>
</g>
<!-- N&#45;&#45;C -->
<g id="edge58" class="edge">
<title>N&#45;&#45;C</title>
<path fill="none" stroke="black" d="M1526.36,-360.41C1521.9,-349.25 1516.04,-334.6 1511.59,-323.47"/>
</g>
<!-- N&#45;&#45;Y -->
<g id="edge54" class="edge">
<title>N&#45;&#45;Y</title>
<path fill="none" stroke="black" d="M1536.15,-359.88C1537.91,-349.53 1539.96,-336.05 1541,-324 1543.15,-299.06 1543.38,-270.04 1543.26,-252.1"/>
</g>
<!-- N&#45;&#45;J -->
<g id="edge60" class="edge">
<title>N&#45;&#45;J</title>
<path fill="none" stroke="black" d="M1549.2,-363.17C1563.67,-350.82 1584.74,-332.83 1599.11,-320.56"/>
</g>
<!-- Y&#45;&#45;I -->
<g id="edge49" class="edge">
<title>Y&#45;&#45;I</title>
<path fill="none" stroke="black" d="M1523.84,-220.81C1503.65,-207.96 1472.05,-187.85 1451.94,-175.05"/>
</g>
<!-- F -->
<g id="node50" class="node">
<title>F</title>
<ellipse fill="none" stroke="black" cx="1505" cy="-162" rx="27" ry="18"/>
<text text-anchor="middle" x="1505" y="-157.8" font-family="Times,serif" font-size="14.00">F</text>
</g>
<!-- Y&#45;&#45;F -->
<g id="edge53" class="edge">
<title>Y&#45;&#45;F</title>
<path fill="none" stroke="black" d="M1534.19,-216.76C1528.05,-205.46 1519.89,-190.44 1513.77,-179.15"/>
</g>
<!-- M -->
<g id="node51" class="node">
<title>M</title>
<ellipse fill="none" stroke="black" cx="1532" cy="-90" rx="27" ry="18"/>
<text text-anchor="middle" x="1532" y="-85.8" font-family="Times,serif" font-size="14.00">M</text>
</g>
<!-- Y&#45;&#45;M -->
<g id="edge52" class="edge">
<title>Y&#45;&#45;M</title>
<path fill="none" stroke="black" d="M1543.35,-215.89C1543.55,-197.94 1543.38,-168.92 1541,-144 1539.85,-131.92 1537.54,-118.44 1535.56,-108.1"/>
</g>
<!-- F&#45;&#45;U -->
<g id="edge50" class="edge">
<title>F&#45;&#45;U</title>
<path fill="none" stroke="black" d="M1485.35,-149.44C1463.3,-136.47 1427.74,-115.55 1405.68,-102.58"/>
</g>
<!-- F&#45;&#45;M -->
<g id="edge51" class="edge">
<title>F&#45;&#45;M</title>
<path fill="none" stroke="black" d="M1511.4,-144.41C1515.64,-133.41 1521.19,-119.03 1525.46,-107.96"/>
</g>
<!-- start_1 -->
<g id="node53" class="node">
<title>start_1</title>
<ellipse fill="none" stroke="black" cx="247" cy="-306" rx="34.35" ry="18"/>
<text text-anchor="middle" x="247" y="-301.8" font-family="Times,serif" font-size="14.00">start_1</text>
</g>
<!-- start_1&#45;&#45;V -->
<g id="edge64" class="edge">
<title>start_1&#45;&#45;V</title>
<path fill="none" stroke="black" d="M232.62,-289.13C224.62,-279.23 215.41,-265.77 211,-252 203.33,-228.01 204.61,-198.48 206.56,-180.2"/>
</g>
<!-- start_1&#45;&#45;t -->
<g id="edge63" class="edge">
<title>start_1&#45;&#45;t</title>
<path fill="none" stroke="black" d="M261.49,-289.17C269.53,-279.27 278.75,-265.82 283,-252 298.64,-201.15 280.83,-137.63 270.44,-107.86"/>
</g>
<!-- start_1&#45;&#45;H -->
<g id="edge62" class="edge">
<title>start_1&#45;&#45;H</title>
<path fill="none" stroke="black" d="M247,-287.7C247,-276.85 247,-262.92 247,-252.1"/>
</g>
<!-- start_2 -->
<g id="node54" class="node">
<title>start_2</title>
<ellipse fill="none" stroke="black" cx="726" cy="-378" rx="34.35" ry="18"/>
<text text-anchor="middle" x="726" y="-373.8" font-family="Times,serif" font-size="14.00">start_2</text>
</g>
<!-- start_2&#45;&#45;h -->
<g id="edge65" class="edge">
<title>start_2&#45;&#45;h</title>
<path fill="none" stroke="black" d="M726,-359.7C726,-348.85 726,-334.92 726,-324.1"/>
</g>
<!-- start_3 -->
<g id="node55" class="node">
<title>start_3</title>
<ellipse fill="none" stroke="black" cx="1107" cy="-378" rx="34.35" ry="18"/>
<text text-anchor="middle" x="1107" y="-373.8" font-family="Times,serif" font-size="14.00">start_3</text>
</g>
<!-- start_3&#45;&#45;T -->
<g id="edge66" class="edge">
<title>start_3&#45;&#45;T</title>
<path fill="none" stroke="black" d="M1093.02,-361.46C1082.43,-349.7 1067.98,-333.64 1057.51,-322.01"/>
</g>
<!-- start_3&#45;&#45;v -->
<g id="edge67" class="edge">
<title>start_3&#45;&#45;v</title>
<path fill="none" stroke="black" d="M1124.58,-362.27C1134.71,-352.58 1146.51,-338.96 1152,-324 1157.52,-308.98 1156.7,-303.29 1152,-288 1147.62,-273.75 1137.96,-259.9 1129.75,-249.93"/>
</g>
<!-- start_4 -->
<g id="node56" class="node">
<title>start_4</title>
<ellipse fill="none" stroke="black" cx="1372" cy="-306" rx="34.35" ry="18"/>
<text text-anchor="middle" x="1372" y="-301.8" font-family="Times,serif" font-size="14.00">start_4</text>
</g>
<!-- start_4&#45;&#45;Z -->
<g id="edge68" class="edge">
<title>start_4&#45;&#45;Z</title>
<path fill="none" stroke="black" d="M1368.37,-288.05C1366.05,-277.21 1363.04,-263.18 1360.7,-252.28"/>
</g>
<!-- start_4&#45;&#45;I -->
<g id="edge69" class="edge">
<title>start_4&#45;&#45;I</title>
<path fill="none" stroke="black" d="M1379.24,-288.15C1391.04,-260.68 1414.29,-206.56 1425.96,-179.39"/>
</g>
</g>
</svg>
